<?xml version="1.0" encoding="utf-8"?>
<!-- Generator: Adobe Illustrator 16.0.0, SVG Export Plug-In . SVG Version: 6.00 Build 0)  -->
<!DOCTYPE svg PUBLIC "-//W3C//DTD SVG 1.1//EN" "http://www.w3.org/Graphics/SVG/1.1/DTD/svg11.dtd">
<svg version="1.1" id="Layer_1" xmlns="http://www.w3.org/2000/svg" xmlns:xlink="http://www.w3.org/1999/xlink" x="0px" y="0px"
	 width="159.7px" height="159px" viewBox="147 -0.75 159.7 159" enable-background="new 147 -0.75 159.7 159" xml:space="preserve">
<path opacity="0.4" fill="none" stroke="#19181E" stroke-linejoin="round" stroke-miterlimit="10" enable-background="new    " d="
	M226.899,0.75L265.2,12.449l40,66.301l-40,66.3l-38.301-11.7l-38.299,11.7l-40-66.3l40-66.301L226.899,0.75z M188.6,12.449
	l-40,66.301l40,66.3l38.299,11.7l38.301-11.7l40-66.3l-40-66.301L226.899,0.75L188.6,12.449z M269.7,62.75l-42.801-62l-42.799,62
	l42.799,70.6L269.7,62.75z M148.6,78.75l35.5-16L148.6,78.75z M305.101,78.75l-35.5-16"/>
<path fill="none" stroke="#19181E" stroke-width="3" stroke-linejoin="round" stroke-miterlimit="10" d="M188.6,145.05l-40-66.3
	l40-66.301l38.299,11.7l38.301-11.7l40,66.301l-40,66.3l-38.301,11.7L188.6,145.05z M226.899,156.75l38.301-11.7l40-66.3l-40-66.301
	L226.899,0.75L188.6,12.449l-40,66.301l40,66.3L226.899,156.75z M226.899,24.149L184,94.75l42.8,62l42.801-62L226.899,24.149z
	 M184,94.75l-35.5-16L184,94.75z M269.7,94.75l35.5-16"/>
</svg>
