<?xml version="1.0" encoding="utf-8"?>
<!-- Generator: Adobe Illustrator 16.0.0, SVG Export Plug-In . SVG Version: 6.00 Build 0)  -->
<!DOCTYPE svg PUBLIC "-//W3C//DTD SVG 1.1//EN" "http://www.w3.org/Graphics/SVG/1.1/DTD/svg11.dtd">
<svg version="1.1" id="Layer_1" xmlns="http://www.w3.org/2000/svg" xmlns:xlink="http://www.w3.org/1999/xlink" x="0px" y="0px"
	 width="446.104px" height="258.566px" viewBox="27.427 36.231 446.104 258.566"
	 enable-background="new 27.427 36.231 446.104 258.566" xml:space="preserve">
<path d="M472.503,124.814c2.758,24.581,0.085,41.595-9.431,59.369c-14.124,26.375-35.951,43.904-64.072,53.619
	c-19.164,6.621-38.881,7.435-58.848,4.726c-17.48-2.375-34.17-7.518-50.402-14.275c-0.498-0.207-0.934-0.569-1.399-0.861
	c0.553,0.102,1.131,0.13,1.658,0.314c15.869,5.581,32.085,9.65,48.894,11.057c22.343,1.87,43.879-0.854,63.854-11.814
	c12.879-7.064,23.693-16.488,32.476-28.32c9.335-12.588,15.154-26.567,17.113-42.088c2.767-21.79-3.614-40.961-17.277-57.819
	c-12.042-14.857-27.017-25.515-45.747-30.25c-13.109-3.313-25.863-2.27-38.049,3.993c-5.375,2.764-11.137,4.87-16.252,8.039
	c-11.578,7.184-20.912,16.979-29.242,27.612c-8.093,10.323-15.713,21.02-23.312,31.719c-5.111,7.205-9.932,14.623-14.695,22.064
	c-14.297,22.335-28.348,44.819-42.791,67.059c-12.012,18.504-24.866,36.422-39.294,53.149c-3.297,3.824-6.858,7.42-10.323,11.093
	c-0.284,0.303-0.768,0.413-1.164,0.618c0.18-0.373,0.296-0.78,0.527-1.111c3.705-5.32,7.593-10.52,11.101-15.961
	c12.652-19.635,23.312-40.375,33.675-61.275c11.782-23.759,23.403-47.594,35.301-71.296c10.511-20.934,21.896-41.394,35.328-60.612
	c9.289-13.287,19.608-25.682,32.804-35.415c15.045-11.102,31.489-12.073,50.113-11.898c23.358,0.215,40.052,8.644,55.289,20.04
	c14.101,11.029,21.479,19.407,32.723,37.906C466.866,103.757,471.622,116.979,472.503,124.814z"/>
<path d="M132.565,260.677c-6.696,3.271-13.862,5.132-21.242,6.22c-15.885,2.351-30.524-0.356-43.006-11.176
	c-0.802-0.697-1.424-1.59-2.128-2.392c0.85,0.616,1.717,1.207,2.544,1.848c10.317,7.949,22.148,10.616,34.907,10.028
	c11.801-0.537,20.574-3.503,31.22-8.309c1.604-0.724,5.122-3.231,6.25-4.621c9.183-11.342,17.655-22.782,24.918-35.421
	c11.151-19.417,22.103-38.946,33.061-58.467c10.799-19.233,21.559-38.491,34.136-56.643c9.575-13.811,20.079-26.84,33.292-37.421
	c9.45-7.573,19.894-13.174,31.854-15.724c5.84-1.247,11.629-2.733,17.454-4.09c0.341-0.081,0.715,0.014,1.075,0.027
	c-0.278,0.181-0.537,0.396-0.838,0.538c-19.58,9.361-34.217,24.472-47.659,40.974c-10.808,13.277-20.355,27.457-29.294,42.019
	c-9.329,15.194-18.147,30.708-27.193,46.078c-6.06,10.298-11.988,20.676-18.239,30.856c-6.477,10.538-13.035,21.043-19.989,31.272
	c-9.524,14.01-19.969,27.3-32.613,38.731c-10.294,9.312-22.644,16.201-34.545,18.714c-11.392,2.263-23.047,0.876-34.415-3.306
	c-17.555-6.459-31.736-17.446-43.035-32.268c-0.306-0.399-0.604-0.812-0.862-1.24c-0.288-0.495-0.527-1.012-0.792-1.521
	c0.411,0.379,0.856,0.719,1.218,1.129c10.842,12.342,23.84,21.479,39.555,26.549c20.167,6.502,37.77,1.896,54.265-11.06
	C129.808,266.232,132.565,260.677,132.565,260.677z"/>
<path d="M420.587,124.485c2.925,13.412,0.414,26.198-4.771,38.659c-0.183,0.441-0.544,0.805-0.822,1.202
	c-0.062-0.383-0.206-0.775-0.173-1.147c2.066-23.399-8.304-40.935-26.038-54.908c-10.861-8.562-23.229-13.804-36.881-16.02
	c-0.696-0.115-1.355-0.452-2.032-0.687c0.562-0.472,1.056-1.066,1.687-1.398c16.729-8.902,32.99-7.607,48.377,2.991
	C410.891,100.723,417.83,111.274,420.587,124.485z"/>
<path d="M361.157,279.077c-15.294,1.323-30.865-1.065-46.192-5.421c-17.569-4.995-34.205-12.281-50.317-20.809
	c-0.446-0.236-0.793-0.668-1.182-1.009c0.466,0.162,0.952,0.278,1.398,0.496c16.801,8.124,34.107,14.847,52.368,18.927
	c15.49,3.45,31.119,5.016,46.871,2.504c16.41-2.615,31.28-9.049,44.559-19.121c6.878-5.217,13.045-11.14,18.481-17.836
	c0.328-0.397,0.83-0.662,1.253-0.991c-0.203,0.453-0.368,0.924-0.61,1.344c-6.534,11.047-15.14,20.181-25.722,27.396
	C389.934,272.843,376.456,277.518,361.157,279.077z"/>
</svg>
